<svg width="153" height="45" viewBox="0 0 153 45" fill="none"
                                xmlns="http://www.w3.org/2000/svg">
                                <g clip-path="url(#clip0_8866_64160)">
                                    <path
                                        d="M146.733 0H6.48866C3.39048 0 0.878906 2.5184 0.878906 5.625V39.375C0.878906 42.4816 3.39048 45 6.48866 45H146.733C149.831 45 152.342 42.4816 152.342 39.375V5.625C152.342 2.5184 149.831 0 146.733 0Z"
                                        fill="white" />
                                    <path
                                        d="M146.733 0.9C147.982 0.9 149.181 1.39781 150.065 2.28392C150.948 3.17003 151.445 4.37185 151.445 5.625V39.375C151.445 40.6281 150.948 41.83 150.065 42.7161C149.181 43.6022 147.982 44.1 146.733 44.1H6.48866C5.23891 44.1 4.04035 43.6022 3.15664 42.7161C2.27293 41.83 1.77647 40.6281 1.77647 39.375V5.625C1.77647 4.37185 2.27293 3.17003 3.15664 2.28392C4.04035 1.39781 5.23891 0.9 6.48866 0.9H146.733ZM146.733 0H6.48866C5.00086 0 3.574 0.592632 2.52197 1.64752C1.46993 2.70242 0.878906 4.13316 0.878906 5.625V39.375C0.878906 40.8668 1.46993 42.2976 2.52197 43.3525C3.574 44.4074 5.00086 45 6.48866 45H146.733C148.22 45 149.647 44.4074 150.699 43.3525C151.751 42.2976 152.342 40.8668 152.342 39.375V5.625C152.342 4.13316 151.751 2.70242 150.699 1.64752C149.647 0.592632 148.22 0 146.733 0Z"
                                        fill="black" />
                                    <path
                                        d="M24.1261 21.8462L12.1773 34.5587C12.3079 35.0396 12.5469 35.4839 12.8759 35.8573C13.2049 36.2308 13.6152 36.5234 14.0749 36.7126C14.5347 36.9018 15.0317 36.9825 15.5275 36.9484C16.0233 36.9144 16.5047 36.7665 16.9344 36.5162L30.3978 28.7312L24.1261 21.8462Z"
                                        fill="#EA4335" />
                                    <path
                                        d="M36.2099 19.6862L30.3982 16.3112L23.8684 22.15L30.4206 28.7313L36.1986 25.3563C36.7123 25.0804 37.1416 24.67 37.441 24.1688C37.7403 23.6675 37.8984 23.0942 37.8984 22.51C37.8984 21.9258 37.7403 21.3525 37.441 20.8512C37.1416 20.35 36.7123 19.9396 36.1986 19.6637L36.2099 19.6862Z"
                                        fill="#FBBC04" />
                                    <path
                                        d="M12.1773 10.4387C12.118 10.7045 12.0916 10.9765 12.0988 11.2487V33.7488C12.1008 34.0299 12.1385 34.3097 12.211 34.5812L24.5525 22.2062L12.1773 10.4387Z"
                                        fill="#4285F4" />
                                    <path
                                        d="M24.2156 22.4988L30.3976 16.3L16.9342 8.4925C16.4283 8.191 15.8509 8.03167 15.2625 8.03125C14.5527 8.03329 13.8631 8.26881 13.2997 8.70168C12.7363 9.13454 12.3301 9.74083 12.1434 10.4275L24.2156 22.4988Z"
                                        fill="#34A853" />
                                    <path
                                        d="M77.3306 24.465C76.3853 24.4672 75.4619 24.7505 74.6771 25.2789C73.8924 25.8074 73.2815 26.5573 72.9218 27.4339C72.5621 28.3104 72.4698 29.2743 72.6563 30.2035C72.8429 31.1327 73.3001 31.9856 73.9701 32.6542C74.6401 33.3229 75.4928 33.7773 76.4204 33.9601C77.3479 34.1428 78.3087 34.0457 79.1812 33.6809C80.0537 33.3161 80.7987 32.7001 81.3221 31.9107C81.8454 31.1214 82.1235 30.1941 82.1213 29.2463C82.1305 28.6139 82.0126 27.9862 81.7748 27.4005C81.537 26.8148 81.1841 26.2831 80.7371 25.8369C80.2901 25.3908 79.7582 25.0395 79.1729 24.8038C78.5877 24.5681 77.9611 24.4529 77.3306 24.465ZM77.3306 32.1488C76.7512 32.1894 76.173 32.0543 75.6712 31.7611C75.1694 31.4678 74.7671 31.03 74.5168 30.5045C74.2664 29.979 74.1795 29.3901 74.2673 28.8144C74.3551 28.2387 74.6136 27.7028 75.0092 27.2764C75.4048 26.85 75.9192 26.5528 76.4855 26.4234C77.0518 26.294 77.6438 26.3384 78.1846 26.5508C78.7254 26.7633 79.1899 27.134 79.5178 27.6147C79.8457 28.0954 80.0219 28.6639 80.0233 29.2463C80.0413 29.6153 79.9855 29.9842 79.8592 30.3312C79.7328 30.6783 79.5384 30.9964 79.2874 31.267C79.0365 31.5375 78.734 31.7549 78.3979 31.9063C78.0619 32.0577 77.6989 32.1402 77.3306 32.1488ZM66.874 24.465C65.9287 24.4672 65.0053 24.7505 64.2205 25.2789C63.4358 25.8074 62.8249 26.5573 62.4653 27.4339C62.1056 28.3104 62.0132 29.2743 62.1998 30.2035C62.3864 31.1327 62.8436 31.9856 63.5135 32.6542C64.1835 33.3229 65.0362 33.7773 65.9638 33.9601C66.8914 34.1428 67.8521 34.0457 68.7246 33.6809C69.5971 33.3161 70.3421 32.7001 70.8655 31.9107C71.3888 31.1214 71.6669 30.1941 71.6647 29.2463C71.6739 28.6139 71.556 27.9862 71.3182 27.4005C71.0804 26.8148 70.7275 26.2831 70.2805 25.8369C69.8335 25.3908 69.3016 25.0395 68.7163 24.8038C68.1311 24.5681 67.5046 24.4529 66.874 24.465ZM66.874 32.1488C66.2946 32.1894 65.7164 32.0543 65.2146 31.7611C64.7128 31.4678 64.3105 31.03 64.0602 30.5045C63.8098 29.979 63.7229 29.3901 63.8107 28.8144C63.8985 28.2387 64.157 27.7028 64.5526 27.2764C64.9482 26.85 65.4626 26.5528 66.0289 26.4234C66.5952 26.294 67.1872 26.3384 67.728 26.5508C68.2688 26.7633 68.7333 27.134 69.0613 27.6147C69.3892 28.0954 69.5653 28.6639 69.5667 29.2463C69.5848 29.6153 69.529 29.9842 69.4026 30.3312C69.2762 30.6783 69.0818 30.9964 68.8308 31.267C68.5799 31.5375 68.2774 31.7549 67.9414 31.9063C67.6053 32.0577 67.2424 32.1402 66.874 32.1488ZM54.4428 25.9388V27.9638H59.2896C59.2136 28.9175 58.8182 29.8175 58.1677 30.5175C57.6815 31.0142 57.0967 31.403 56.4512 31.6588C55.8057 31.9146 55.1138 32.0317 54.4203 32.0025C52.9921 32.0025 51.6223 31.4336 50.6123 30.4209C49.6024 29.4082 49.035 28.0347 49.035 26.6025C49.035 25.1703 49.6024 23.7968 50.6123 22.7841C51.6223 21.7714 52.9921 21.2025 54.4203 21.2025C55.7896 21.1821 57.1118 21.7035 58.1003 22.6538L59.5252 21.225C58.8565 20.5618 58.0625 20.0391 57.1898 19.6875C56.3171 19.336 55.3832 19.1626 54.4428 19.1775C53.4454 19.1386 52.4504 19.302 51.5174 19.6578C50.5845 20.0137 49.7328 20.5548 49.0134 21.2486C48.294 21.9425 47.7217 22.7748 47.3307 23.6957C46.9398 24.6167 46.7383 25.6072 46.7383 26.6081C46.7383 27.609 46.9398 28.5996 47.3307 29.5205C47.7217 30.4415 48.294 31.2738 49.0134 31.9676C49.7328 32.6615 50.5845 33.2025 51.5174 33.5584C52.4504 33.9143 53.4454 34.0777 54.4428 34.0388C55.4025 34.0772 56.3595 33.9116 57.2509 33.5529C58.1423 33.1942 58.948 32.6505 59.615 31.9575C60.7932 30.6597 61.4209 28.9528 61.3652 27.1988C61.3692 26.7766 61.3354 26.3549 61.2642 25.9388H54.4428ZM105.278 27.5138C104.986 26.6506 104.439 25.8969 103.709 25.3525C102.98 24.808 102.103 24.4986 101.194 24.465C100.581 24.4638 99.9733 24.5888 99.4097 24.8324C98.8461 25.0759 98.3383 25.4327 97.9177 25.8809C97.4971 26.329 97.1726 26.8588 96.9643 27.4377C96.756 28.0165 96.6683 28.6321 96.7067 29.2463C96.6971 30.2732 97.0191 31.2757 97.6246 32.104C98.2301 32.9324 99.0865 33.5421 100.066 33.842C101.046 34.142 102.096 34.1162 103.059 33.7684C104.023 33.4207 104.849 32.7696 105.413 31.9125L103.786 30.7875C103.544 31.1928 103.2 31.5275 102.788 31.7584C102.377 31.9893 101.913 32.1083 101.441 32.1038C100.955 32.1239 100.474 31.996 100.062 31.737C99.6491 31.478 99.3244 31.1 99.1301 30.6525L105.514 28.0088L105.278 27.5138ZM98.7711 29.1113C98.7483 28.7618 98.7953 28.4113 98.9094 28.0803C99.0234 27.7493 99.2022 27.4445 99.4352 27.1836C99.6682 26.9227 99.9507 26.7111 100.266 26.5611C100.582 26.4111 100.924 26.3257 101.273 26.31C101.635 26.2879 101.994 26.3732 102.308 26.5553C102.621 26.7374 102.874 27.0082 103.034 27.3338L98.7711 29.1113ZM93.5877 33.7463H95.6857V19.6838H93.5877V33.7463ZM90.1545 25.5338H90.0759C89.7574 25.1861 89.3683 24.9108 88.9348 24.7265C88.5013 24.5421 88.0335 24.453 87.5628 24.465C86.3367 24.5246 85.1805 25.055 84.3338 25.9462C83.4871 26.8373 83.0148 28.021 83.0148 29.2519C83.0148 30.4827 83.4871 31.6664 84.3338 32.5576C85.1805 33.4488 86.3367 33.9791 87.5628 34.0388C88.0384 34.0483 88.5103 33.9524 88.9448 33.758C89.3792 33.5635 89.7655 33.2752 90.0759 32.9138H90.1545V33.6C90.1545 35.4338 89.1784 36.4125 87.6077 36.4125C87.083 36.4009 86.5735 36.2333 86.144 35.9308C85.7145 35.6284 85.3844 35.2047 85.1955 34.7138L83.3779 35.4675C83.7139 36.3138 84.2982 37.0379 85.0534 37.5441C85.8087 38.0503 86.6993 38.3147 87.6077 38.3025C90.0647 38.3025 92.0955 36.8513 92.0955 33.3188V24.7463H90.1545V25.5338ZM87.7423 32.1488C87.0072 32.1028 86.3172 31.7776 85.8129 31.2394C85.3085 30.7012 85.0278 29.9904 85.0278 29.2519C85.0278 28.5134 85.3085 27.8026 85.8129 27.2644C86.3172 26.7262 87.0072 26.401 87.7423 26.355C88.1016 26.3705 88.4541 26.4584 88.7788 26.6133C89.1036 26.7683 89.3939 26.9871 89.6325 27.2569C89.8712 27.5266 90.0533 27.8418 90.168 28.1835C90.2828 28.5253 90.3278 28.8867 90.3003 29.2463C90.3309 29.607 90.2883 29.9703 90.1749 30.3141C90.0615 30.6578 89.8797 30.9749 89.6406 31.2463C89.4015 31.5176 89.11 31.7375 88.7837 31.8926C88.4574 32.0477 88.1031 32.1348 87.7423 32.1488ZM115.107 19.6838H110.08V33.7463H112.178V28.4138H115.107C115.705 28.4568 116.305 28.3759 116.87 28.1761C117.436 27.9762 117.954 27.6617 118.393 27.2522C118.832 26.8426 119.182 26.3468 119.421 25.7957C119.66 25.2445 119.784 24.6499 119.784 24.0488C119.784 23.4476 119.66 22.853 119.421 22.3018C119.182 21.7507 118.832 21.2549 118.393 20.8453C117.954 20.4358 117.436 20.1213 116.87 19.9214C116.305 19.7216 115.705 19.6407 115.107 19.6838ZM115.107 26.4338H112.178V21.6413H115.152C115.788 21.6413 116.399 21.8949 116.849 22.3464C117.3 22.7979 117.553 23.4102 117.553 24.0488C117.553 24.6873 117.3 25.2996 116.849 25.7511C116.399 26.2026 115.788 26.4563 115.152 26.4563L115.107 26.4338ZM128.054 24.42C127.29 24.3728 126.529 24.5511 125.865 24.933C125.201 25.3149 124.663 25.8836 124.318 26.5688L126.169 27.345C126.356 27.0068 126.637 26.7302 126.977 26.5485C127.318 26.3669 127.703 26.2879 128.088 26.3213C128.354 26.2901 128.624 26.3124 128.882 26.3869C129.139 26.4614 129.379 26.5866 129.588 26.7552C129.797 26.9238 129.97 27.1324 130.098 27.3689C130.226 27.6054 130.305 27.8649 130.332 28.1325V28.2675C129.657 27.9119 128.906 27.7266 128.144 27.7275C126.147 27.7275 124.105 28.8525 124.105 30.9C124.124 31.3352 124.231 31.762 124.419 32.155C124.606 32.548 124.87 32.8992 125.196 33.1878C125.521 33.4764 125.901 33.6965 126.313 33.8349C126.725 33.9733 127.161 34.0274 127.594 33.9938C128.12 34.023 128.645 33.9112 129.114 33.6701C129.584 33.4289 129.981 33.0669 130.264 32.6213H130.332V33.7463H132.351V28.335C132.351 25.8713 130.489 24.4425 128.099 24.4425L128.054 24.42ZM127.796 32.1263C127.112 32.1263 126.158 31.7775 126.158 30.9338C126.158 29.8088 127.347 29.4263 128.402 29.4263C129.068 29.4098 129.727 29.5729 130.309 29.8988C130.239 30.5097 129.95 31.0743 129.496 31.4881C129.042 31.9018 128.454 32.1365 127.841 32.1488L127.796 32.1263ZM139.711 24.7463L137.31 30.8438H137.243L134.752 24.7463H132.508L136.244 33.2738L134.113 38.01H136.356L142.045 24.7463H139.711ZM120.862 33.7463H122.949V19.6838H120.862V33.7463Z"
                                        fill="black" />
                                    <path
                                        d="M52.4897 14.3403C51.8633 14.5661 51.2032 14.6841 50.5375 14.6891C50.1069 14.7128 49.6758 14.6504 49.2694 14.5055C48.863 14.3607 48.4893 14.1363 48.1702 13.8453C47.8723 13.531 47.6404 13.16 47.4882 12.7542C47.3359 12.3484 47.2665 11.916 47.2839 11.4828C47.2702 11.0361 47.3501 10.5915 47.5185 10.1777C47.6869 9.76391 47.94 9.39014 48.2614 9.08055C48.5829 8.77095 48.9655 8.53243 49.3846 8.38037C49.8038 8.22832 50.25 8.16613 50.6946 8.19781C51.2359 8.19037 51.7735 8.28976 52.2766 8.49031L52.0746 9.16531C51.6318 8.97576 51.1535 8.88369 50.6722 8.89531C50.3308 8.86821 49.9877 8.91567 49.6664 9.03442C49.3452 9.15317 49.0534 9.34039 48.8113 9.58316C48.5692 9.82593 48.3825 10.1185 48.2641 10.4406C48.1456 10.7627 48.0983 11.1068 48.1253 11.4491C48.0926 11.7844 48.1324 12.1229 48.2421 12.4414C48.3519 12.7599 48.5289 13.0509 48.7611 13.2945C48.9934 13.538 49.2753 13.7284 49.5877 13.8526C49.9001 13.9768 50.2356 14.0319 50.5712 14.0141C50.954 14.0424 51.3382 13.9807 51.6931 13.8341V11.9441H50.3805V11.2466H52.4897V14.3403Z"
                                        fill="black" />
                                    <path
                                        d="M57.179 11.6403H54.7332V13.8903H57.4707V14.6216H53.9029V8.2653H57.3249V8.99655H54.7332V10.9653H57.1902L57.179 11.6403Z"
                                        fill="black" />
                                    <path
                                        d="M60.0741 8.99656H58.0995V8.26531H62.7892V8.99656H60.8931V14.6216H60.0741V8.99656Z"
                                        fill="black" />
                                    <path d="M66.7273 8.26531V14.6216H65.9531V8.26531H66.7273Z" fill="black" />
                                    <path
                                        d="M69.5434 8.99656H67.6136V8.26531H72.3146V8.99656H70.3736V14.6216H69.5434V8.99656Z"
                                        fill="black" />
                                    <path
                                        d="M80.7966 11.3816C80.7966 13.5641 79.4726 14.7566 77.857 14.7566C77.4533 14.751 77.0551 14.661 76.688 14.4925C76.3208 14.324 75.9927 14.0807 75.7246 13.7779C75.4564 13.4752 75.2542 13.1198 75.1307 12.7343C75.0072 12.3488 74.9651 11.9417 75.0073 11.5391C74.9587 11.1199 74.9981 10.6952 75.1229 10.2923C75.2477 9.88927 75.4552 9.51692 75.732 9.1991C76.0088 8.88128 76.3488 8.62502 76.7302 8.44677C77.1117 8.26852 77.5261 8.17222 77.9468 8.16406C78.3516 8.16621 78.7515 8.25381 79.1203 8.42116C79.4891 8.58851 79.8187 8.83186 80.0875 9.13537C80.3563 9.43888 80.5584 9.79575 80.6805 10.1828C80.8027 10.5698 80.8422 10.9782 80.7966 11.3816ZM75.8824 11.4828C75.8824 12.8441 76.6117 14.0591 77.9019 14.0591C79.1922 14.0591 79.9326 12.8553 79.9326 11.4153C79.9326 10.1553 79.2707 8.83906 77.9131 8.83906C76.5556 8.83906 75.8824 10.1216 75.8824 11.4828Z"
                                        fill="black" />
                                    <path
                                        d="M82.0531 14.6216V8.26531H82.9395L85.0263 11.4828C85.441 12.1304 85.8157 12.803 86.1483 13.4966C86.0809 12.6416 86.0585 11.8766 86.0585 10.8866V8.26531H86.8327V14.6216H86.0024L83.9941 11.3928C83.546 10.7142 83.1413 10.0078 82.7824 9.27781C82.7824 10.0766 82.7824 10.8416 82.7824 11.8991V14.6216H82.0531Z"
                                        fill="black" />
                                    <path
                                        d="M52.4897 14.3403C51.8633 14.5661 51.2032 14.6841 50.5375 14.6891C50.1069 14.7128 49.6758 14.6504 49.2694 14.5055C48.863 14.3607 48.4893 14.1363 48.1702 13.8453C47.8723 13.531 47.6404 13.16 47.4882 12.7542C47.3359 12.3484 47.2665 11.916 47.2839 11.4828C47.2702 11.0361 47.3501 10.5915 47.5185 10.1777C47.6869 9.76391 47.94 9.39014 48.2614 9.08055C48.5829 8.77095 48.9655 8.53243 49.3846 8.38037C49.8038 8.22832 50.25 8.16613 50.6946 8.19781C51.2359 8.19037 51.7735 8.28976 52.2766 8.49031L52.0746 9.16531C51.6318 8.97576 51.1535 8.88369 50.6722 8.89531C50.3308 8.86821 49.9877 8.91567 49.6664 9.03442C49.3452 9.15317 49.0534 9.34039 48.8113 9.58316C48.5692 9.82593 48.3825 10.1185 48.2641 10.4406C48.1456 10.7627 48.0983 11.1068 48.1253 11.4491C48.0926 11.7844 48.1324 12.1229 48.2421 12.4414C48.3519 12.7599 48.5289 13.0509 48.7611 13.2945C48.9934 13.538 49.2753 13.7284 49.5877 13.8526C49.9001 13.9768 50.2356 14.0319 50.5712 14.0141C50.954 14.0424 51.3382 13.9807 51.6931 13.8341V11.9441H50.3805V11.2466H52.4897V14.3403Z"
                                        stroke="white" stroke-width="0.2" stroke-miterlimit="10" />
                                    <path
                                        d="M57.179 11.6403H54.7332V13.8903H57.4707V14.6216H53.9029V8.2653H57.3249V8.99655H54.7332V10.9653H57.1902L57.179 11.6403Z"
                                        stroke="white" stroke-width="0.2" stroke-miterlimit="10" />
                                    <path
                                        d="M60.0741 8.99656H58.0995V8.26531H62.7892V8.99656H60.8931V14.6216H60.0741V8.99656Z"
                                        stroke="white" stroke-width="0.2" stroke-miterlimit="10" />
                                    <path d="M66.7273 8.26531V14.6216H65.9531V8.26531H66.7273Z" stroke="white"
                                        stroke-width="0.2" stroke-miterlimit="10" />
                                    <path
                                        d="M69.5434 8.99656H67.6136V8.26531H72.3146V8.99656H70.3736V14.6216H69.5434V8.99656Z"
                                        stroke="white" stroke-width="0.2" stroke-miterlimit="10" />
                                    <path
                                        d="M80.7966 11.3816C80.7966 13.5641 79.4726 14.7566 77.857 14.7566C77.4533 14.751 77.0551 14.661 76.688 14.4925C76.3208 14.324 75.9927 14.0807 75.7246 13.7779C75.4564 13.4752 75.2542 13.1198 75.1307 12.7343C75.0072 12.3488 74.9651 11.9417 75.0073 11.5391C74.9587 11.1199 74.9981 10.6952 75.1229 10.2923C75.2477 9.88927 75.4552 9.51692 75.732 9.1991C76.0088 8.88128 76.3488 8.62502 76.7302 8.44677C77.1117 8.26852 77.5261 8.17222 77.9468 8.16406C78.3516 8.16621 78.7515 8.25381 79.1203 8.42116C79.4891 8.58851 79.8187 8.83186 80.0875 9.13537C80.3563 9.43888 80.5584 9.79575 80.6805 10.1828C80.8027 10.5698 80.8422 10.9782 80.7966 11.3816ZM75.8824 11.4828C75.8824 12.8441 76.6117 14.0591 77.9019 14.0591C79.1922 14.0591 79.9326 12.8553 79.9326 11.4153C79.9326 10.1553 79.2707 8.83906 77.9131 8.83906C76.5556 8.83906 75.8824 10.1216 75.8824 11.4828Z"
                                        stroke="white" stroke-width="0.2" stroke-miterlimit="10" />
                                    <path
                                        d="M82.0531 14.6216V8.26531H82.9395L85.0263 11.4828C85.441 12.1304 85.8157 12.803 86.1483 13.4966C86.0809 12.6416 86.0585 11.8766 86.0585 10.8866V8.26531H86.8327V14.6216H86.0024L83.9941 11.3928C83.546 10.7142 83.1413 10.0078 82.7824 9.27781C82.7824 10.0766 82.7824 10.8416 82.7824 11.8991V14.6216H82.0531Z"
                                        stroke="white" stroke-width="0.2" stroke-miterlimit="10" />
                                </g>
                                <defs>
                                    <clipPath id="clip0_8866_64160">
                                        <rect width="151.463" height="45" fill="white"
                                            transform="translate(0.878906)" />
                                    </clipPath>
                                </defs>
                            </svg>